<svg id="Layer_1" xmlns="http://www.w3.org/2000/svg" xmlns:xlink="http://www.w3.org/1999/xlink" viewBox="0 0 127 14.1" style="enable-background:new 0 0 127 14.1;"><style>.st0{fill:#FFFFFF;}</style><polygon class="st0" points="0,13.1 1.4,12.9 1.4,0.8 0,0.6 0.1,0 2.9,0 5.6,0 5.7,0.6 4.4,0.8 4.4,6.5 4.7,6.3 10.4,0.8 8.8,0.6 8.9,0 11,0 13.2,0 13.2,0.6 11.6,0.8 5.8,6.3 7.3,6.2 12.8,12.9 13.7,13.1 13.7,13.7 11.7,13.7 9.6,13.7 4.6,7.2 4.4,6.9 4.4,12.9 5.7,13.1 5.6,13.7 2.9,13.7 0.1,13.7"/><path class="st0" d="M26.7 12.9l-3-4.9-2.6-.8c2.8-.4 4.8-1.5 4.8-3.7C25.9 1.1 24 0 21.8.0h-4.2-2.8l-.1.6 1.4.2v12.1l-1.4.2.1.6h2.9 2.7l.1-.6-1.3-.2V7.4H20l.1.1 3.6 6.3h1.7 2.2v-.6L26.7 12.9zM20.1 6.6h-1V.8l1.3-.2c1.3.0 2.3 1.1 2.3 2.9C22.7 5.4 21.7 6.6 20.1 6.6z"/><polygon class="st0" points="28.7,13.1 30.1,12.9 30.1,0.8 28.7,0.6 28.8,0 31.5,0 39.6,0 39.7,3.7 39.1,3.7 37.7,0.8 33.1,0.8 33.1,6.2 35.5,6.1 36.4,3.9 37,3.9 36.9,6.5 37,9.2 36.4,9.2 35.5,7 33.1,6.9 33.1,13 37.9,12.9 39.3,9.9 39.9,9.9 39.6,13.7 31.5,13.7 28.8,13.7"/><path class="st0" d="M42.9 8.9V.8L41.5.6v-.6h2.6 3l.1.6-1.3.2V9c0 2.2 1.1 3.8 3.2 3.8 1.9.0 3.1-1.5 3.1-3.8V.8L50.7.6 50.9.0h2 1.9v.6l-1.4.2V9c0 2.4-.9 4.3-4.8 5.1-4 0-5.7-2.1-5.7-5.2z"/><polygon class="st0" points="55.9,13.1 62.9,1.1 63.4,0.8 58.6,0.8 57.2,3.9 56.5,3.9 56.5,0 66.5,0 66.6,0.6 59.5,12.6 59.1,13 64.1,12.9 65.8,9.7 66.6,9.7 66.2,13.7 56,13.7"/><path class="st0" d="M80.9 6.4c2.4-.3 4-1.6 4-3.3.0-1.5-1.2-3.1-3.7-3.1h-4.5-2.6L74 .6l1.4.2v12.1L74 13.1l.1.6h2.5 3.8c3-.3 5.1-1.5 5.1-4C85.6 8 84.1 6.5 80.9 6.4zM78.5.8l1.3-.1c1.4.0 2.1 1 2.1 2.5.0 1.7-.8 3-2.1 3h-1.3V.8zm1.2 12.3-1.3-.1V6.8h1.4c1.5.0 2.6 1.1 2.6 3.1C82.5 11.5 81.7 13.1 79.7 13.1z"/><polygon class="st0" points="87,13.1 88.4,12.9 88.4,0.8 87,0.6 87,0 89.7,0 97.9,0 98,3.7 97.3,3.7 96,0.8 91.4,0.8 91.4,6.2 93.7,6.1 94.6,3.9 95.2,3.9 95.1,6.5 95.2,9.2 94.6,9.2 93.7,7 91.4,6.9 91.4,13 96.1,12.9 97.5,9.9 98.2,9.9 97.9,13.7 89.7,13.7 87,13.7"/><path class="st0" d="M112.1 12.9l-3-4.9-2.6-.8c2.8-.4 4.8-1.5 4.8-3.7.0-2.3-1.9-3.4-4.1-3.4H103h-2.8L1e2.6l1.4.2v12.1l-1.4.2.1.6h2.9 2.7l.1-.6-1.3-.2V7.4h.9l.1.1 3.6 6.3h1.7 2.2v-.6L112.1 12.9zM105.4 6.6h-1V.8l1.3-.2c1.3.0 2.3 1.1 2.3 2.9C108 5.4 107 6.6 105.4 6.6z"/><polygon class="st0" points="116.4,2.6 116.2,1.7 116.2,12.9 117.6,13.1 117.6,13.7 115.7,13.7 113.9,13.7 113.9,13.1 115.2,12.9 115.2,0.9 113.9,0.6 113.9,0 116.1,0 118.1,0 124.4,8.8 124.7,9.6 124.7,0.8 123.2,0.6 123.3,0 125.1,0 127,0 127,0.6 125.6,0.8 125.6,13.8 124.2,13.8"/></svg>