<svg xmlns="http://www.w3.org/2000/svg" xml:space="preserve" id="OKGO-logo" x="0" y="0" version="1.1" viewBox="0 0 221 240.6"><style>.st0{fill:#fff}</style><path d="M141.2 163.4c-1.3-1.3-2.7-2.7-4.2-3.8l-1.4-1-34.4 34.4 12.4 12.4 20.6-20.6c4.7 10 2.8 22-5.1 29.8-10.2 10.2-26.9 10.2-37.2-.1-10.4-10.4-10.7-26.6-.5-36.8 4.9-4.9 11.6-7.7 18.4-7.7h2.1v-19h-2.1c-11.6.2-22.6 4.8-30.8 13.1-8.5 8.5-13.1 19.7-13.2 31.7 0 12 4.6 23.2 13.1 31.7s19.7 13.1 31.6 13.1c11.9 0 23.2-4.7 31.6-13.1 17.4-17.4 17.4-45.8 0-63.2l-.9-.9zM128.3 106.3l-16.8-16.7v-9.9h43.4l18.2-18.1h-61.6V0L93.6 18v53.6L66.8 44.8l-13 13 61.5 61.5zM207.9 94.8c-8.5-8.5-19.7-13.1-31.6-13.1s-23.2 4.7-31.6 13.1c-8.5 8.5-13.1 19.7-13.1 31.6s4.7 23.2 13.1 31.6c8.5 8.5 19.7 13.1 31.6 13.1s23.2-4.7 31.6-13.1c8.5-8.5 13.1-19.7 13.1-31.6s-4.7-23.2-13.1-31.6zm-13 50.2c-10.2 10.2-26.9 10.2-37.2-.1-10.3-10.3-10.3-27-.1-37.2 5.1-5.1 11.8-7.6 18.5-7.6 6.8 0 13.5 2.6 18.7 7.7 10.3 10.3 10.3 27 .1 37.2z" class="st0"/><path d="M175.5 126.4c0 6.4 5.2 11.6 11.6 11.6 6.4 0 11.6-5.2 11.6-11.6 0-6.4-5.2-11.6-11.6-11.6-6.4 0-11.6 5.2-11.6 11.6zM76.3 94.8c-17.4-17.4-45.8-17.4-63.2 0-17.4 17.4-17.4 45.8 0 63.2 8.7 8.7 20.2 13.1 31.6 13.1 11.5 0 22.9-4.4 31.6-13.1 17.5-17.4 17.5-45.8 0-63.2zm-13 50.2c-10.2 10.2-26.9 10.2-37.2-.1-10.3-10.3-10.3-26.9-.1-37.2 5.1-5.1 11.8-7.6 18.5-7.6 6.8 0 13.5 2.6 18.7 7.7 5 5 7.7 11.6 7.7 18.6.1 7.1-2.6 13.7-7.6 18.6z" class="st0"/><path d="M43.9 126.4c0 6.4 5.2 11.6 11.6 11.6 6.4 0 11.6-5.2 11.6-11.6 0-6.4-5.2-11.6-11.6-11.6-6.4 0-11.6 5.2-11.6 11.6z" class="st0"/></svg>